<svg xmlns="http://www.w3.org/2000/svg" viewBox="0 0 32 32"><path fill="#2800BA" d="M12 1h1v1h-1zM13 1h1v1h-1zM14 1h1v1h-1zM15 1h1v1h-1zM16 1h1v1h-1zM17 1h1v1h-1zM12 2h1v1h-1zM13 2h1v1h-1zM14 2h1v1h-1zM15 2h1v1h-1zM16 2h1v1h-1zM17 2h1v1h-1zM11 3h1v1h-1zM12 3h1v1h-1zM13 3h1v1h-1zM14 3h1v1h-1zM15 3h1v1h-1zM16 3h1v1h-1zM17 3h1v1h-1z"/><path fill="#FFF" d="M6 4h1v1H6zM7 4h1v1H7zM8 4h1v1H8z"/><path fill="#FFA200" d="M12 4h1v1h-1zM13 4h1v1h-1zM14 4h1v1h-1zM15 4h1v1h-1zM16 4h1v1h-1zM17 4h1v1h-1zM6 5h1v1H6z"/><path fill="#FFF" d="M7 5h1v1H7zM8 5h1v1H8z"/><path fill="#FFA200" d="M11 5h1v1h-1zM12 5h1v1h-1z"/><path d="M13 5h1v1h-1z"/><path fill="#FFA200" d="M14 5h1v1h-1zM15 5h1v1h-1z"/><path d="M16 5h1v1h-1z"/><path fill="#FFA200" d="M17 5h1v1h-1zM18 5h1v1h-1zM6 6h1v1H6zM7 6h1v1H7z"/><path fill="#FFF" d="M8 6h1v1H8z"/><path fill="#FFA200" d="M12 6h1v1h-1zM13 6h1v1h-1zM14 6h1v1h-1zM15 6h1v1h-1zM16 6h1v1h-1zM17 6h1v1h-1zM6 7h1v1H6zM7 7h1v1H7zM12 7h1v1h-1zM13 7h1v1h-1zM14 7h1v1h-1zM15 7h1v1h-1zM16 7h1v1h-1zM17 7h1v1h-1z"/><path fill="#2000B2" d="M6 8h1v1H6zM7 8h1v1H7z"/><path fill="#FFA200" d="M13 8h1v1h-1zM14 8h1v1h-1zM15 8h1v1h-1zM16 8h1v1h-1z"/><path fill="#2000B2" d="M6 9h1v1H6zM7 9h1v1H7zM8 9h1v1H8z"/><path fill="#FFF" d="M10 9h1v1h-1zM11 9h1v1h-1zM12 9h1v1h-1z"/><path fill="#2000B2" d="M13 9h1v1h-1zM14 9h1v1h-1zM15 9h1v1h-1zM16 9h1v1h-1z"/><path fill="#FFF" d="M17 9h1v1h-1zM18 9h1v1h-1z"/><path fill="#2000B2" d="M6 10h1v1H6zM7 10h1v1H7zM8 10h1v1H8zM9 10h1v1H9z"/><path fill="#FFF" d="M10 10h1v1h-1zM11 10h1v1h-1zM12 10h1v1h-1zM13 10h1v1h-1zM14 10h1v1h-1zM15 10h1v1h-1zM16 10h1v1h-1zM17 10h1v1h-1zM18 10h1v1h-1zM19 10h1v1h-1z"/><path fill="#2000B2" d="M7 11h1v1H7zM8 11h1v1H8zM9 11h1v1H9z"/><path fill="#FFF" d="M10 11h1v1h-1zM11 11h1v1h-1zM12 11h1v1h-1zM13 11h1v1h-1zM14 11h1v1h-1zM15 11h1v1h-1zM16 11h1v1h-1zM17 11h1v1h-1zM18 11h1v1h-1z"/><path fill="#2000B2" d="M19 11h1v1h-1z"/><path fill="#FFF" d="M10 12h1v1h-1zM11 12h1v1h-1zM12 12h1v1h-1zM13 12h1v1h-1zM14 12h1v1h-1zM15 12h1v1h-1zM16 12h1v1h-1zM17 12h1v1h-1zM18 12h1v1h-1z"/><path fill="#2000B2" d="M19 12h1v1h-1zM20 12h1v1h-1z"/><path fill="#FFF" d="M11 13h1v1h-1zM12 13h1v1h-1zM13 13h1v1h-1zM14 13h1v1h-1zM15 13h1v1h-1zM16 13h1v1h-1zM17 13h1v1h-1zM18 13h1v1h-1z"/><path fill="#2000B2" d="M19 13h1v1h-1zM20 13h1v1h-1zM21 13h1v1h-1z"/><path fill="#FFF" d="M11 14h1v1h-1zM12 14h1v1h-1zM13 14h1v1h-1zM14 14h1v1h-1zM15 14h1v1h-1zM16 14h1v1h-1zM17 14h1v1h-1z"/><path fill="#2000B2" d="M18 14h1v1h-1zM19 14h1v1h-1zM20 14h1v1h-1z"/><path fill="#794100" d="M12 15h1v1h-1zM13 15h1v1h-1zM14 15h1v1h-1zM15 15h1v1h-1zM16 15h1v1h-1z"/><path fill="#2000B2" d="M17 15h1v1h-1zM18 15h1v1h-1zM19 15h1v1h-1zM20 15h1v1h-1z"/><path fill="#794100" d="M11 16h1v1h-1zM12 16h1v1h-1zM13 16h1v1h-1zM14 16h1v1h-1zM15 16h1v1h-1zM16 16h1v1h-1z"/><path fill="#2000B2" d="M17 16h1v1h-1zM18 16h1v1h-1zM19 16h1v1h-1z"/><path fill="#794100" d="M11 17h1v1h-1zM12 17h1v1h-1zM13 17h1v1h-1z"/><path fill="#FFA200" d="M14 17h1v1h-1z"/><path fill="#794100" d="M15 17h1v1h-1z"/><path fill="#FFA200" d="M16 17h1v1h-1z"/><path fill="#2000B2" d="M17 17h1v1h-1zM18 17h1v1h-1zM19 17h1v1h-1z"/><path fill="#794100" d="M11 18h1v1h-1zM12 18h1v1h-1zM13 18h1v1h-1zM14 18h1v1h-1zM15 18h1v1h-1zM16 18h1v1h-1z"/><path fill="#FFF" d="M17 18h1v1h-1z"/><path fill="#2000B2" d="M18 18h1v1h-1z"/><path fill="#794100" d="M11 19h1v1h-1zM12 19h1v1h-1zM13 19h1v1h-1zM14 19h1v1h-1zM15 19h1v1h-1z"/><path fill="#FFF" d="M16 19h1v1h-1zM17 19h1v1h-1zM18 19h1v1h-1zM10 20h1v1h-1zM11 20h1v1h-1zM12 20h1v1h-1zM13 20h1v1h-1zM14 20h1v1h-1zM15 20h1v1h-1zM16 20h1v1h-1zM17 20h1v1h-1zM18 20h1v1h-1zM9 21h1v1H9zM10 21h1v1h-1zM11 21h1v1h-1zM12 21h1v1h-1zM13 21h1v1h-1zM14 21h1v1h-1zM15 21h1v1h-1zM16 21h1v1h-1zM17 21h1v1h-1zM18 21h1v1h-1zM9 22h1v1H9zM10 22h1v1h-1zM11 22h1v1h-1zM12 22h1v1h-1zM13 22h1v1h-1zM14 22h1v1h-1zM15 22h1v1h-1zM16 22h1v1h-1zM17 22h1v1h-1zM18 22h1v1h-1zM19 22h1v1h-1zM8 23h1v1H8zM9 23h1v1H9zM10 23h1v1h-1zM11 23h1v1h-1zM12 23h1v1h-1zM13 23h1v1h-1zM16 23h1v1h-1zM17 23h1v1h-1zM18 23h1v1h-1zM19 23h1v1h-1zM8 24h1v1H8zM9 24h1v1H9zM10 24h1v1h-1zM11 24h1v1h-1zM12 24h1v1h-1zM15 24h1v1h-1zM16 24h1v1h-1zM17 24h1v1h-1zM18 24h1v1h-1zM19 24h1v1h-1zM8 25h1v1H8zM9 25h1v1H9zM10 25h1v1h-1zM11 25h1v1h-1zM15 25h1v1h-1zM16 25h1v1h-1zM17 25h1v1h-1zM18 25h1v1h-1zM19 25h1v1h-1z"/><path d="M8 26h1v1H8z"/><path fill="#FFF" d="M9 26h1v1H9zM10 26h1v1h-1zM11 26h1v1h-1zM15 26h1v1h-1zM16 26h1v1h-1zM17 26h1v1h-1zM18 26h1v1h-1zM19 26h1v1h-1z"/><path d="M8 27h1v1H8zM9 27h1v1H9zM10 27h1v1h-1z"/><path fill="#FFF" d="M16 27h1v1h-1zM17 27h1v1h-1zM18 27h1v1h-1zM19 27h1v1h-1z"/><path d="M8 28h1v1H8zM9 28h1v1H9zM10 28h1v1h-1z"/><path fill="#FFF" d="M16 28h1v1h-1zM17 28h1v1h-1zM18 28h1v1h-1zM19 28h1v1h-1zM17 29h1v1h-1z"/><path d="M18 29h1v1h-1zM19 29h1v1h-1zM17 30h1v1h-1zM18 30h1v1h-1zM19 30h1v1h-1zM20 30h1v1h-1zM17 31h1v1h-1zM18 31h1v1h-1zM19 31h1v1h-1zM20 31h1v1h-1zM21 31h1v1h-1z"/></svg>