<?xml version="1.0" encoding="UTF-8" ?>
<svg version="1.1" width="32" height="160" xmlns="http://www.w3.org/2000/svg" shape-rendering="crispEdges">
<rect x="13" y="25" width="1" height="1" fill="#000000" />
<rect x="14" y="25" width="1" height="1" fill="#000000" />
<rect x="15" y="25" width="1" height="1" fill="#000000" />
<rect x="16" y="25" width="1" height="1" fill="#000000" />
<rect x="17" y="25" width="1" height="1" fill="#000000" />
<rect x="12" y="26" width="1" height="1" fill="#000000" />
<rect x="13" y="26" width="1" height="1" fill="#000000" />
<rect x="14" y="26" width="1" height="1" fill="#000000" />
<rect x="15" y="26" width="1" height="1" fill="#000000" />
<rect x="16" y="26" width="1" height="1" fill="#000000" />
<rect x="17" y="26" width="1" height="1" fill="#000000" />
<rect x="18" y="26" width="1" height="1" fill="#000000" />
<rect x="12" y="27" width="1" height="1" fill="#000000" />
<rect x="13" y="27" width="1" height="1" fill="#000000" />
<rect x="14" y="27" width="1" height="1" fill="#000000" />
<rect x="15" y="27" width="1" height="1" fill="#000000" />
<rect x="16" y="27" width="1" height="1" fill="#000000" />
<rect x="17" y="27" width="1" height="1" fill="#000000" />
<rect x="18" y="27" width="1" height="1" fill="#000000" />
<rect x="13" y="28" width="1" height="1" fill="#000000" />
<rect x="14" y="28" width="1" height="1" fill="#000000" />
<rect x="15" y="28" width="1" height="1" fill="#000000" />
<rect x="16" y="28" width="1" height="1" fill="#000000" />
<rect x="17" y="28" width="1" height="1" fill="#000000" />
<rect x="13" y="57" width="1" height="1" fill="#000000" />
<rect x="14" y="57" width="1" height="1" fill="#000000" />
<rect x="15" y="57" width="1" height="1" fill="#000000" />
<rect x="16" y="57" width="1" height="1" fill="#000000" />
<rect x="17" y="57" width="1" height="1" fill="#000000" />
<rect x="18" y="57" width="1" height="1" fill="#000000" />
<rect x="13" y="58" width="1" height="1" fill="#000000" />
<rect x="18" y="58" width="1" height="1" fill="#000000" />
<rect x="12" y="59" width="1" height="1" fill="#000000" />
<rect x="13" y="59" width="1" height="1" fill="#000000" />
<rect x="18" y="59" width="1" height="1" fill="#000000" />
<rect x="19" y="59" width="1" height="1" fill="#000000" />
<rect x="18" y="89" width="1" height="1" fill="#000000" />
<rect x="14" y="90" width="1" height="1" fill="#000000" />
<rect x="15" y="90" width="1" height="1" fill="#000000" />
<rect x="16" y="90" width="1" height="1" fill="#000000" />
<rect x="17" y="90" width="1" height="1" fill="#000000" />
<rect x="13" y="121" width="1" height="1" fill="#000000" />
<rect x="14" y="121" width="1" height="1" fill="#000000" />
<rect x="15" y="121" width="1" height="1" fill="#000000" />
<rect x="16" y="121" width="1" height="1" fill="#000000" />
<rect x="17" y="121" width="1" height="1" fill="#000000" />
<rect x="18" y="121" width="1" height="1" fill="#000000" />
<rect x="11" y="122" width="1" height="1" fill="#000000" />
<rect x="12" y="122" width="1" height="1" fill="#000000" />
<rect x="13" y="122" width="1" height="1" fill="#FFFFFF" />
<rect x="14" y="122" width="1" height="1" fill="#000000" />
<rect x="15" y="122" width="1" height="1" fill="#FFFFFF" />
<rect x="16" y="122" width="1" height="1" fill="#FFFFFF" />
<rect x="17" y="122" width="1" height="1" fill="#000000" />
<rect x="18" y="122" width="1" height="1" fill="#FFFFFF" />
<rect x="19" y="122" width="1" height="1" fill="#000000" />
<rect x="20" y="122" width="1" height="1" fill="#000000" />
<rect x="10" y="123" width="1" height="1" fill="#000000" />
<rect x="11" y="123" width="1" height="1" fill="#FFFFFF" />
<rect x="12" y="123" width="1" height="1" fill="#000000" />
<rect x="13" y="123" width="1" height="1" fill="#FFFFFF" />
<rect x="14" y="123" width="1" height="1" fill="#000000" />
<rect x="15" y="123" width="1" height="1" fill="#FFFFFF" />
<rect x="16" y="123" width="1" height="1" fill="#FFFFFF" />
<rect x="17" y="123" width="1" height="1" fill="#000000" />
<rect x="18" y="123" width="1" height="1" fill="#FFFFFF" />
<rect x="19" y="123" width="1" height="1" fill="#000000" />
<rect x="20" y="123" width="1" height="1" fill="#FFFFFF" />
<rect x="21" y="123" width="1" height="1" fill="#000000" />
<rect x="10" y="124" width="1" height="1" fill="#000000" />
<rect x="11" y="124" width="1" height="1" fill="#FFFFFF" />
<rect x="12" y="124" width="1" height="1" fill="#000000" />
<rect x="13" y="124" width="1" height="1" fill="#FFFFFF" />
<rect x="14" y="124" width="1" height="1" fill="#000000" />
<rect x="15" y="124" width="1" height="1" fill="#FFFFFF" />
<rect x="16" y="124" width="1" height="1" fill="#FFFFFF" />
<rect x="17" y="124" width="1" height="1" fill="#000000" />
<rect x="18" y="124" width="1" height="1" fill="#FFFFFF" />
<rect x="19" y="124" width="1" height="1" fill="#000000" />
<rect x="20" y="124" width="1" height="1" fill="#FFFFFF" />
<rect x="21" y="124" width="1" height="1" fill="#000000" />
<rect x="11" y="125" width="1" height="1" fill="#000000" />
<rect x="12" y="125" width="1" height="1" fill="#000000" />
<rect x="13" y="125" width="1" height="1" fill="#FFFFFF" />
<rect x="14" y="125" width="1" height="1" fill="#000000" />
<rect x="15" y="125" width="1" height="1" fill="#FFFFFF" />
<rect x="16" y="125" width="1" height="1" fill="#FFFFFF" />
<rect x="17" y="125" width="1" height="1" fill="#000000" />
<rect x="18" y="125" width="1" height="1" fill="#FFFFFF" />
<rect x="19" y="125" width="1" height="1" fill="#000000" />
<rect x="20" y="125" width="1" height="1" fill="#000000" />
<rect x="12" y="126" width="1" height="1" fill="#000000" />
<rect x="13" y="126" width="1" height="1" fill="#000000" />
<rect x="14" y="126" width="1" height="1" fill="#000000" />
<rect x="15" y="126" width="1" height="1" fill="#000000" />
<rect x="16" y="126" width="1" height="1" fill="#000000" />
<rect x="17" y="126" width="1" height="1" fill="#000000" />
<rect x="18" y="126" width="1" height="1" fill="#000000" />
<rect x="19" y="126" width="1" height="1" fill="#000000" />
<rect x="12" y="154" width="1" height="1" fill="#000000" />
<rect x="13" y="154" width="1" height="1" fill="#000000" />
<rect x="14" y="154" width="1" height="1" fill="#000000" />
<rect x="15" y="154" width="1" height="1" fill="#000000" />
<rect x="16" y="154" width="1" height="1" fill="#000000" />
<rect x="17" y="154" width="1" height="1" fill="#000000" />
<rect x="18" y="154" width="1" height="1" fill="#000000" />
<rect x="19" y="154" width="1" height="1" fill="#000000" />
</svg>