<?xml version="1.0" encoding="UTF-8" ?>
<svg version="1.1" width="32" height="96" xmlns="http://www.w3.org/2000/svg" shape-rendering="crispEdges">
<rect x="10" y="12" width="1" height="1" fill="#3F3F74" />
<rect x="11" y="12" width="1" height="1" fill="#3F3F74" />
<rect x="20" y="12" width="1" height="1" fill="#3F3F74" />
<rect x="21" y="12" width="1" height="1" fill="#3F3F74" />
<rect x="10" y="13" width="1" height="1" fill="#3F3F74" />
<rect x="11" y="13" width="1" height="1" fill="#3F3F74" />
<rect x="20" y="13" width="1" height="1" fill="#3F3F74" />
<rect x="21" y="13" width="1" height="1" fill="#3F3F74" />
<rect x="10" y="44" width="1" height="1" fill="#37946E" />
<rect x="21" y="44" width="1" height="1" fill="#37946E" />
<rect x="9" y="45" width="1" height="1" fill="#37946E" />
<rect x="10" y="45" width="1" height="1" fill="#37946E" />
<rect x="11" y="45" width="1" height="1" fill="#37946E" />
<rect x="20" y="45" width="1" height="1" fill="#37946E" />
<rect x="21" y="45" width="1" height="1" fill="#37946E" />
<rect x="22" y="45" width="1" height="1" fill="#37946E" />
<rect x="10" y="46" width="1" height="1" fill="#37946E" />
<rect x="21" y="46" width="1" height="1" fill="#37946E" />
<rect x="10" y="76" width="1" height="1" fill="#AC3232" />
<rect x="11" y="76" width="1" height="1" fill="#AC3232" />
<rect x="20" y="76" width="1" height="1" fill="#AC3232" />
<rect x="21" y="76" width="1" height="1" fill="#AC3232" />
<rect x="10" y="77" width="1" height="1" fill="#AC3232" />
<rect x="11" y="77" width="1" height="1" fill="#AC3232" />
<rect x="20" y="77" width="1" height="1" fill="#AC3232" />
<rect x="21" y="77" width="1" height="1" fill="#AC3232" />
<rect x="10" y="78" width="1" height="1" fill="#AC3232" />
<rect x="11" y="78" width="1" height="1" fill="#AC3232" />
<rect x="20" y="78" width="1" height="1" fill="#AC3232" />
<rect x="21" y="78" width="1" height="1" fill="#AC3232" />
</svg>