<?xml version="1.0" encoding="UTF-8" ?>
<svg version="1.1" width="32" height="96" xmlns="http://www.w3.org/2000/svg" shape-rendering="crispEdges">
<rect x="10" y="22" width="1" height="1" fill="#FBF236" />
<rect x="11" y="22" width="1" height="1" fill="#FBF236" />
<rect x="20" y="22" width="1" height="1" fill="#FBF236" />
<rect x="21" y="22" width="1" height="1" fill="#FBF236" />
<rect x="11" y="23" width="1" height="1" fill="#FBF236" />
<rect x="12" y="23" width="1" height="1" fill="#FBF236" />
<rect x="13" y="23" width="1" height="1" fill="#FBF236" />
<rect x="14" y="23" width="1" height="1" fill="#FBF236" />
<rect x="15" y="23" width="1" height="1" fill="#FBF236" />
<rect x="16" y="23" width="1" height="1" fill="#FBF236" />
<rect x="17" y="23" width="1" height="1" fill="#FBF236" />
<rect x="18" y="23" width="1" height="1" fill="#FBF236" />
<rect x="19" y="23" width="1" height="1" fill="#FBF236" />
<rect x="20" y="23" width="1" height="1" fill="#FBF236" />
<rect x="11" y="24" width="1" height="1" fill="#FBF236" />
<rect x="12" y="24" width="1" height="1" fill="#FBF236" />
<rect x="13" y="24" width="1" height="1" fill="#FBF236" />
<rect x="14" y="24" width="1" height="1" fill="#FBF236" />
<rect x="15" y="24" width="1" height="1" fill="#FBF236" />
<rect x="16" y="24" width="1" height="1" fill="#FBF236" />
<rect x="17" y="24" width="1" height="1" fill="#FBF236" />
<rect x="18" y="24" width="1" height="1" fill="#FBF236" />
<rect x="19" y="24" width="1" height="1" fill="#FBF236" />
<rect x="20" y="24" width="1" height="1" fill="#FBF236" />
<rect x="11" y="55" width="1" height="1" fill="#FBF236" />
<rect x="12" y="55" width="1" height="1" fill="#FBF236" />
<rect x="19" y="55" width="1" height="1" fill="#FBF236" />
<rect x="20" y="55" width="1" height="1" fill="#FBF236" />
<rect x="11" y="56" width="1" height="1" fill="#FBF236" />
<rect x="20" y="56" width="1" height="1" fill="#FBF236" />
<rect x="10" y="57" width="1" height="1" fill="#FBF236" />
<rect x="21" y="57" width="1" height="1" fill="#FBF236" />
<rect x="9" y="87" width="1" height="1" fill="#FBF236" />
<rect x="10" y="87" width="1" height="1" fill="#FBF236" />
<rect x="11" y="87" width="1" height="1" fill="#FBF236" />
<rect x="12" y="87" width="1" height="1" fill="#FBF236" />
<rect x="13" y="87" width="1" height="1" fill="#FBF236" />
<rect x="14" y="87" width="1" height="1" fill="#FBF236" />
<rect x="15" y="87" width="1" height="1" fill="#FBF236" />
<rect x="16" y="87" width="1" height="1" fill="#FBF236" />
<rect x="17" y="87" width="1" height="1" fill="#FBF236" />
<rect x="18" y="87" width="1" height="1" fill="#FBF236" />
<rect x="19" y="87" width="1" height="1" fill="#FBF236" />
<rect x="20" y="87" width="1" height="1" fill="#FBF236" />
<rect x="21" y="87" width="1" height="1" fill="#FBF236" />
<rect x="22" y="87" width="1" height="1" fill="#FBF236" />
<rect x="8" y="88" width="1" height="1" fill="#FBF236" />
<rect x="9" y="88" width="1" height="1" fill="#FBF236" />
<rect x="10" y="88" width="1" height="1" fill="#FBF236" />
<rect x="11" y="88" width="1" height="1" fill="#FBF236" />
<rect x="12" y="88" width="1" height="1" fill="#FBF236" />
<rect x="13" y="88" width="1" height="1" fill="#FBF236" />
<rect x="14" y="88" width="1" height="1" fill="#FBF236" />
<rect x="15" y="88" width="1" height="1" fill="#FBF236" />
<rect x="16" y="88" width="1" height="1" fill="#FBF236" />
<rect x="17" y="88" width="1" height="1" fill="#FBF236" />
<rect x="18" y="88" width="1" height="1" fill="#FBF236" />
<rect x="19" y="88" width="1" height="1" fill="#FBF236" />
<rect x="20" y="88" width="1" height="1" fill="#FBF236" />
<rect x="21" y="88" width="1" height="1" fill="#FBF236" />
<rect x="22" y="88" width="1" height="1" fill="#FBF236" />
<rect x="23" y="88" width="1" height="1" fill="#FBF236" />
<rect x="8" y="89" width="1" height="1" fill="#FBF236" />
<rect x="9" y="89" width="1" height="1" fill="#FBF236" />
<rect x="22" y="89" width="1" height="1" fill="#FBF236" />
<rect x="23" y="89" width="1" height="1" fill="#FBF236" />
<rect x="8" y="90" width="1" height="1" fill="#FBF236" />
<rect x="9" y="90" width="1" height="1" fill="#FBF236" />
<rect x="22" y="90" width="1" height="1" fill="#FBF236" />
<rect x="23" y="90" width="1" height="1" fill="#FBF236" />
<rect x="8" y="91" width="1" height="1" fill="#FBF236" />
<rect x="9" y="91" width="1" height="1" fill="#FBF236" />
<rect x="22" y="91" width="1" height="1" fill="#FBF236" />
<rect x="23" y="91" width="1" height="1" fill="#FBF236" />
<rect x="9" y="92" width="1" height="1" fill="#FBF236" />
<rect x="22" y="92" width="1" height="1" fill="#FBF236" />
</svg>