<?xml version="1.0" encoding="UTF-8" ?>
<svg version="1.1" width="32" height="128" xmlns="http://www.w3.org/2000/svg" shape-rendering="crispEdges">
<rect x="15" y="16" width="1" height="1" fill="#000000" />
<rect x="15" y="17" width="1" height="1" fill="#000000" />
<rect x="15" y="18" width="1" height="1" fill="#000000" />
<rect x="14" y="19" width="1" height="1" fill="#000000" />
<rect x="15" y="19" width="1" height="1" fill="#000000" />
<rect x="13" y="20" width="1" height="1" fill="#000000" />
<rect x="13" y="21" width="1" height="1" fill="#000000" />
<rect x="14" y="22" width="1" height="1" fill="#000000" />
<rect x="15" y="22" width="1" height="1" fill="#000000" />
<rect x="13" y="50" width="1" height="1" fill="#000000" />
<rect x="14" y="50" width="1" height="1" fill="#000000" />
<rect x="15" y="50" width="1" height="1" fill="#000000" />
<rect x="16" y="50" width="1" height="1" fill="#000000" />
<rect x="17" y="50" width="1" height="1" fill="#000000" />
<rect x="18" y="50" width="1" height="1" fill="#000000" />
<rect x="12" y="51" width="1" height="1" fill="#000000" />
<rect x="19" y="51" width="1" height="1" fill="#000000" />
<rect x="12" y="52" width="1" height="1" fill="#000000" />
<rect x="14" y="52" width="1" height="1" fill="#000000" />
<rect x="17" y="52" width="1" height="1" fill="#000000" />
<rect x="19" y="52" width="1" height="1" fill="#000000" />
<rect x="13" y="53" width="1" height="1" fill="#000000" />
<rect x="14" y="53" width="1" height="1" fill="#000000" />
<rect x="17" y="53" width="1" height="1" fill="#000000" />
<rect x="18" y="53" width="1" height="1" fill="#000000" />
<rect x="15" y="81" width="1" height="1" fill="#000000" />
<rect x="16" y="81" width="1" height="1" fill="#000000" />
<rect x="17" y="81" width="1" height="1" fill="#000000" />
<rect x="18" y="81" width="1" height="1" fill="#000000" />
<rect x="13" y="82" width="1" height="1" fill="#000000" />
<rect x="14" y="82" width="1" height="1" fill="#000000" />
<rect x="18" y="82" width="1" height="1" fill="#000000" />
<rect x="19" y="82" width="1" height="1" fill="#000000" />
<rect x="20" y="82" width="1" height="1" fill="#000000" />
<rect x="20" y="83" width="1" height="1" fill="#000000" />
<rect x="21" y="83" width="1" height="1" fill="#000000" />
<rect x="21" y="84" width="1" height="1" fill="#000000" />
<rect x="14" y="85" width="1" height="1" fill="#000000" />
<rect x="15" y="85" width="1" height="1" fill="#000000" />
<rect x="16" y="85" width="1" height="1" fill="#000000" />
<rect x="17" y="85" width="1" height="1" fill="#000000" />
<rect x="18" y="85" width="1" height="1" fill="#000000" />
<rect x="19" y="85" width="1" height="1" fill="#000000" />
<rect x="20" y="85" width="1" height="1" fill="#000000" />
<rect x="21" y="85" width="1" height="1" fill="#000000" />
<rect x="14" y="113" width="1" height="1" fill="#000000" />
<rect x="15" y="113" width="1" height="1" fill="#000000" />
<rect x="13" y="114" width="1" height="1" fill="#000000" />
<rect x="14" y="114" width="1" height="1" fill="#000000" />
<rect x="13" y="115" width="1" height="1" fill="#000000" />
<rect x="13" y="116" width="1" height="1" fill="#000000" />
<rect x="14" y="116" width="1" height="1" fill="#000000" />
<rect x="15" y="116" width="1" height="1" fill="#000000" />
</svg>