<?xml version="1.0" encoding="UTF-8" ?>
<svg version="1.1" width="32" height="96" xmlns="http://www.w3.org/2000/svg" shape-rendering="crispEdges">
<rect x="9" y="10" width="1" height="1" fill="#FFFFFF" />
<rect x="10" y="10" width="1" height="1" fill="#FFFFFF" />
<rect x="11" y="10" width="1" height="1" fill="#FFFFFF" />
<rect x="20" y="10" width="1" height="1" fill="#FFFFFF" />
<rect x="21" y="10" width="1" height="1" fill="#FFFFFF" />
<rect x="22" y="10" width="1" height="1" fill="#FFFFFF" />
<rect x="8" y="11" width="1" height="1" fill="#FFFFFF" />
<rect x="9" y="11" width="1" height="1" fill="#FFFFFF" />
<rect x="10" y="11" width="1" height="1" fill="#FFFFFF" />
<rect x="11" y="11" width="1" height="1" fill="#FFFFFF" />
<rect x="12" y="11" width="1" height="1" fill="#FFFFFF" />
<rect x="19" y="11" width="1" height="1" fill="#FFFFFF" />
<rect x="20" y="11" width="1" height="1" fill="#FFFFFF" />
<rect x="21" y="11" width="1" height="1" fill="#FFFFFF" />
<rect x="22" y="11" width="1" height="1" fill="#FFFFFF" />
<rect x="23" y="11" width="1" height="1" fill="#FFFFFF" />
<rect x="7" y="12" width="1" height="1" fill="#FFFFFF" />
<rect x="8" y="12" width="1" height="1" fill="#FFFFFF" />
<rect x="9" y="12" width="1" height="1" fill="#FFFFFF" />
<rect x="10" y="12" width="1" height="1" fill="#FFFFFF" />
<rect x="11" y="12" width="1" height="1" fill="#FFFFFF" />
<rect x="12" y="12" width="1" height="1" fill="#FFFFFF" />
<rect x="13" y="12" width="1" height="1" fill="#FFFFFF" />
<rect x="18" y="12" width="1" height="1" fill="#FFFFFF" />
<rect x="19" y="12" width="1" height="1" fill="#FFFFFF" />
<rect x="20" y="12" width="1" height="1" fill="#FFFFFF" />
<rect x="21" y="12" width="1" height="1" fill="#FFFFFF" />
<rect x="22" y="12" width="1" height="1" fill="#FFFFFF" />
<rect x="23" y="12" width="1" height="1" fill="#FFFFFF" />
<rect x="24" y="12" width="1" height="1" fill="#FFFFFF" />
<rect x="7" y="13" width="1" height="1" fill="#FFFFFF" />
<rect x="8" y="13" width="1" height="1" fill="#FFFFFF" />
<rect x="9" y="13" width="1" height="1" fill="#FFFFFF" />
<rect x="10" y="13" width="1" height="1" fill="#FFFFFF" />
<rect x="11" y="13" width="1" height="1" fill="#FFFFFF" />
<rect x="12" y="13" width="1" height="1" fill="#FFFFFF" />
<rect x="13" y="13" width="1" height="1" fill="#FFFFFF" />
<rect x="18" y="13" width="1" height="1" fill="#FFFFFF" />
<rect x="19" y="13" width="1" height="1" fill="#FFFFFF" />
<rect x="20" y="13" width="1" height="1" fill="#FFFFFF" />
<rect x="21" y="13" width="1" height="1" fill="#FFFFFF" />
<rect x="22" y="13" width="1" height="1" fill="#FFFFFF" />
<rect x="23" y="13" width="1" height="1" fill="#FFFFFF" />
<rect x="24" y="13" width="1" height="1" fill="#FFFFFF" />
<rect x="7" y="14" width="1" height="1" fill="#FFFFFF" />
<rect x="8" y="14" width="1" height="1" fill="#FFFFFF" />
<rect x="9" y="14" width="1" height="1" fill="#FFFFFF" />
<rect x="10" y="14" width="1" height="1" fill="#FFFFFF" />
<rect x="11" y="14" width="1" height="1" fill="#FFFFFF" />
<rect x="12" y="14" width="1" height="1" fill="#FFFFFF" />
<rect x="13" y="14" width="1" height="1" fill="#FFFFFF" />
<rect x="18" y="14" width="1" height="1" fill="#FFFFFF" />
<rect x="19" y="14" width="1" height="1" fill="#FFFFFF" />
<rect x="20" y="14" width="1" height="1" fill="#FFFFFF" />
<rect x="21" y="14" width="1" height="1" fill="#FFFFFF" />
<rect x="22" y="14" width="1" height="1" fill="#FFFFFF" />
<rect x="23" y="14" width="1" height="1" fill="#FFFFFF" />
<rect x="24" y="14" width="1" height="1" fill="#FFFFFF" />
<rect x="8" y="15" width="1" height="1" fill="#FFFFFF" />
<rect x="9" y="15" width="1" height="1" fill="#FFFFFF" />
<rect x="10" y="15" width="1" height="1" fill="#FFFFFF" />
<rect x="11" y="15" width="1" height="1" fill="#FFFFFF" />
<rect x="12" y="15" width="1" height="1" fill="#FFFFFF" />
<rect x="19" y="15" width="1" height="1" fill="#FFFFFF" />
<rect x="20" y="15" width="1" height="1" fill="#FFFFFF" />
<rect x="21" y="15" width="1" height="1" fill="#FFFFFF" />
<rect x="22" y="15" width="1" height="1" fill="#FFFFFF" />
<rect x="23" y="15" width="1" height="1" fill="#FFFFFF" />
<rect x="9" y="16" width="1" height="1" fill="#FFFFFF" />
<rect x="10" y="16" width="1" height="1" fill="#FFFFFF" />
<rect x="11" y="16" width="1" height="1" fill="#FFFFFF" />
<rect x="20" y="16" width="1" height="1" fill="#FFFFFF" />
<rect x="21" y="16" width="1" height="1" fill="#FFFFFF" />
<rect x="22" y="16" width="1" height="1" fill="#FFFFFF" />
<rect x="7" y="43" width="1" height="1" fill="#FFFFFF" />
<rect x="8" y="43" width="1" height="1" fill="#FFFFFF" />
<rect x="9" y="43" width="1" height="1" fill="#FFFFFF" />
<rect x="10" y="43" width="1" height="1" fill="#FFFFFF" />
<rect x="11" y="43" width="1" height="1" fill="#FFFFFF" />
<rect x="20" y="43" width="1" height="1" fill="#FFFFFF" />
<rect x="21" y="43" width="1" height="1" fill="#FFFFFF" />
<rect x="22" y="43" width="1" height="1" fill="#FFFFFF" />
<rect x="23" y="43" width="1" height="1" fill="#FFFFFF" />
<rect x="24" y="43" width="1" height="1" fill="#FFFFFF" />
<rect x="6" y="44" width="1" height="1" fill="#FFFFFF" />
<rect x="7" y="44" width="1" height="1" fill="#FFFFFF" />
<rect x="8" y="44" width="1" height="1" fill="#FFFFFF" />
<rect x="9" y="44" width="1" height="1" fill="#FFFFFF" />
<rect x="10" y="44" width="1" height="1" fill="#FFFFFF" />
<rect x="11" y="44" width="1" height="1" fill="#FFFFFF" />
<rect x="12" y="44" width="1" height="1" fill="#FFFFFF" />
<rect x="19" y="44" width="1" height="1" fill="#FFFFFF" />
<rect x="20" y="44" width="1" height="1" fill="#FFFFFF" />
<rect x="21" y="44" width="1" height="1" fill="#FFFFFF" />
<rect x="22" y="44" width="1" height="1" fill="#FFFFFF" />
<rect x="23" y="44" width="1" height="1" fill="#FFFFFF" />
<rect x="24" y="44" width="1" height="1" fill="#FFFFFF" />
<rect x="25" y="44" width="1" height="1" fill="#FFFFFF" />
<rect x="6" y="45" width="1" height="1" fill="#FFFFFF" />
<rect x="7" y="45" width="1" height="1" fill="#FFFFFF" />
<rect x="8" y="45" width="1" height="1" fill="#FFFFFF" />
<rect x="9" y="45" width="1" height="1" fill="#FFFFFF" />
<rect x="10" y="45" width="1" height="1" fill="#FFFFFF" />
<rect x="11" y="45" width="1" height="1" fill="#FFFFFF" />
<rect x="12" y="45" width="1" height="1" fill="#FFFFFF" />
<rect x="19" y="45" width="1" height="1" fill="#FFFFFF" />
<rect x="20" y="45" width="1" height="1" fill="#FFFFFF" />
<rect x="21" y="45" width="1" height="1" fill="#FFFFFF" />
<rect x="22" y="45" width="1" height="1" fill="#FFFFFF" />
<rect x="23" y="45" width="1" height="1" fill="#FFFFFF" />
<rect x="24" y="45" width="1" height="1" fill="#FFFFFF" />
<rect x="25" y="45" width="1" height="1" fill="#FFFFFF" />
<rect x="7" y="46" width="1" height="1" fill="#FFFFFF" />
<rect x="8" y="46" width="1" height="1" fill="#FFFFFF" />
<rect x="9" y="46" width="1" height="1" fill="#FFFFFF" />
<rect x="10" y="46" width="1" height="1" fill="#FFFFFF" />
<rect x="11" y="46" width="1" height="1" fill="#FFFFFF" />
<rect x="20" y="46" width="1" height="1" fill="#FFFFFF" />
<rect x="21" y="46" width="1" height="1" fill="#FFFFFF" />
<rect x="22" y="46" width="1" height="1" fill="#FFFFFF" />
<rect x="23" y="46" width="1" height="1" fill="#FFFFFF" />
<rect x="24" y="46" width="1" height="1" fill="#FFFFFF" />
<rect x="10" y="72" width="1" height="1" fill="#FFFFFF" />
<rect x="11" y="72" width="1" height="1" fill="#FFFFFF" />
<rect x="20" y="72" width="1" height="1" fill="#FFFFFF" />
<rect x="21" y="72" width="1" height="1" fill="#FFFFFF" />
<rect x="10" y="73" width="1" height="1" fill="#FFFFFF" />
<rect x="11" y="73" width="1" height="1" fill="#FFFFFF" />
<rect x="20" y="73" width="1" height="1" fill="#FFFFFF" />
<rect x="21" y="73" width="1" height="1" fill="#FFFFFF" />
<rect x="9" y="74" width="1" height="1" fill="#FFFFFF" />
<rect x="10" y="74" width="1" height="1" fill="#FFFFFF" />
<rect x="11" y="74" width="1" height="1" fill="#FFFFFF" />
<rect x="12" y="74" width="1" height="1" fill="#FFFFFF" />
<rect x="19" y="74" width="1" height="1" fill="#FFFFFF" />
<rect x="20" y="74" width="1" height="1" fill="#FFFFFF" />
<rect x="21" y="74" width="1" height="1" fill="#FFFFFF" />
<rect x="22" y="74" width="1" height="1" fill="#FFFFFF" />
<rect x="9" y="75" width="1" height="1" fill="#FFFFFF" />
<rect x="10" y="75" width="1" height="1" fill="#FFFFFF" />
<rect x="11" y="75" width="1" height="1" fill="#FFFFFF" />
<rect x="12" y="75" width="1" height="1" fill="#FFFFFF" />
<rect x="19" y="75" width="1" height="1" fill="#FFFFFF" />
<rect x="20" y="75" width="1" height="1" fill="#FFFFFF" />
<rect x="21" y="75" width="1" height="1" fill="#FFFFFF" />
<rect x="22" y="75" width="1" height="1" fill="#FFFFFF" />
<rect x="9" y="76" width="1" height="1" fill="#FFFFFF" />
<rect x="10" y="76" width="1" height="1" fill="#FFFFFF" />
<rect x="11" y="76" width="1" height="1" fill="#FFFFFF" />
<rect x="12" y="76" width="1" height="1" fill="#FFFFFF" />
<rect x="19" y="76" width="1" height="1" fill="#FFFFFF" />
<rect x="20" y="76" width="1" height="1" fill="#FFFFFF" />
<rect x="21" y="76" width="1" height="1" fill="#FFFFFF" />
<rect x="22" y="76" width="1" height="1" fill="#FFFFFF" />
<rect x="9" y="77" width="1" height="1" fill="#FFFFFF" />
<rect x="10" y="77" width="1" height="1" fill="#FFFFFF" />
<rect x="11" y="77" width="1" height="1" fill="#FFFFFF" />
<rect x="12" y="77" width="1" height="1" fill="#FFFFFF" />
<rect x="19" y="77" width="1" height="1" fill="#FFFFFF" />
<rect x="20" y="77" width="1" height="1" fill="#FFFFFF" />
<rect x="21" y="77" width="1" height="1" fill="#FFFFFF" />
<rect x="22" y="77" width="1" height="1" fill="#FFFFFF" />
<rect x="10" y="78" width="1" height="1" fill="#FFFFFF" />
<rect x="11" y="78" width="1" height="1" fill="#FFFFFF" />
<rect x="20" y="78" width="1" height="1" fill="#FFFFFF" />
<rect x="21" y="78" width="1" height="1" fill="#FFFFFF" />
<rect x="10" y="79" width="1" height="1" fill="#FFFFFF" />
<rect x="11" y="79" width="1" height="1" fill="#FFFFFF" />
<rect x="20" y="79" width="1" height="1" fill="#FFFFFF" />
<rect x="21" y="79" width="1" height="1" fill="#FFFFFF" />
</svg>