<svg xmlns="http://www.w3.org/2000/svg" shape-rendering="crispEdges" viewBox="0 0 6 32"><path fill="#663931" d="M2 0h1v1H2zM3 0h1v1H3zM1 1h1v1H1zM2 1h1v1H2zM3 1h1v1H3zM4 1h1v1H4zM0 2h1v1H0zM1 2h1v1H1zM2 2h1v1H2zM3 2h1v1H3zM4 2h1v1H4zM5 2h1v1H5zM0 3h1v1H0zM1 3h1v1H1zM2 3h1v1H2zM3 3h1v1H3zM4 3h1v1H4zM5 3h1v1H5zM0 4h1v1H0zM1 4h1v1H1zM2 4h1v1H2zM3 4h1v1H3zM4 4h1v1H4zM5 4h1v1H5zM0 5h1v1H0zM1 5h1v1H1zM2 5h1v1H2zM3 5h1v1H3zM4 5h1v1H4zM5 5h1v1H5zM0 6h1v1H0zM1 6h1v1H1zM2 6h1v1H2zM3 6h1v1H3zM4 6h1v1H4zM5 6h1v1H5zM0 7h1v1H0zM1 7h1v1H1zM2 7h1v1H2zM3 7h1v1H3zM4 7h1v1H4zM5 7h1v1H5zM0 8h1v1H0zM1 8h1v1H1zM2 8h1v1H2zM3 8h1v1H3zM4 8h1v1H4zM5 8h1v1H5zM0 9h1v1H0zM1 9h1v1H1zM2 9h1v1H2zM3 9h1v1H3zM4 9h1v1H4zM5 9h1v1H5zM0 10h1v1H0zM1 10h1v1H1zM2 10h1v1H2zM3 10h1v1H3zM4 10h1v1H4zM5 10h1v1H5zM0 11h1v1H0zM1 11h1v1H1zM2 11h1v1H2zM3 11h1v1H3zM4 11h1v1H4zM5 11h1v1H5zM0 12h1v1H0zM1 12h1v1H1zM2 12h1v1H2zM3 12h1v1H3zM4 12h1v1H4zM5 12h1v1H5zM0 13h1v1H0zM1 13h1v1H1zM2 13h1v1H2zM3 13h1v1H3zM4 13h1v1H4zM5 13h1v1H5zM0 14h1v1H0zM1 14h1v1H1zM2 14h1v1H2zM3 14h1v1H3zM4 14h1v1H4zM5 14h1v1H5zM0 15h1v1H0zM1 15h1v1H1zM2 15h1v1H2zM3 15h1v1H3zM4 15h1v1H4zM5 15h1v1H5zM0 16h1v1H0zM1 16h1v1H1zM2 16h1v1H2zM3 16h1v1H3zM4 16h1v1H4zM5 16h1v1H5zM0 17h1v1H0zM1 17h1v1H1zM2 17h1v1H2zM3 17h1v1H3zM4 17h1v1H4zM5 17h1v1H5zM0 18h1v1H0zM1 18h1v1H1zM2 18h1v1H2zM3 18h1v1H3zM4 18h1v1H4zM5 18h1v1H5zM0 19h1v1H0zM1 19h1v1H1zM2 19h1v1H2zM3 19h1v1H3zM4 19h1v1H4zM5 19h1v1H5zM0 20h1v1H0zM1 20h1v1H1zM2 20h1v1H2zM3 20h1v1H3zM4 20h1v1H4zM5 20h1v1H5zM1 21h1v1H1zM2 21h1v1H2zM3 21h1v1H3zM4 21h1v1H4zM1 22h1v1H1zM2 22h1v1H2zM3 22h1v1H3zM4 22h1v1H4z"/><path d="M2 23h1v1H2zM3 23h1v1H3zM2 24h1v1H2zM3 24h1v1H3zM2 25h1v1H2zM3 25h1v1H3zM2 26h1v1H2zM3 26h1v1H3zM2 27h1v1H2zM3 27h1v1H3zM2 28h1v1H2zM3 28h1v1H3z"/><path fill="#663931" d="M2 29h1v1H2zM3 29h1v1H3zM1 30h1v1H1zM2 30h1v1H2zM3 30h1v1H3zM4 30h1v1H4zM2 31h1v1H2zM3 31h1v1H3z"/></svg>