<?xml version="1.0" encoding="UTF-8" ?>
<svg version="1.1" width="32" height="96" xmlns="http://www.w3.org/2000/svg" shape-rendering="crispEdges">
<rect x="5" y="18" width="1" height="1" fill="#000000" />
<rect x="6" y="18" width="1" height="1" fill="#000000" />
<rect x="25" y="18" width="1" height="1" fill="#000000" />
<rect x="26" y="18" width="1" height="1" fill="#000000" />
<rect x="6" y="19" width="1" height="1" fill="#000000" />
<rect x="25" y="19" width="1" height="1" fill="#000000" />
<rect x="6" y="20" width="1" height="1" fill="#000000" />
<rect x="25" y="20" width="1" height="1" fill="#000000" />
<rect x="6" y="21" width="1" height="1" fill="#000000" />
<rect x="25" y="21" width="1" height="1" fill="#000000" />
<rect x="6" y="22" width="1" height="1" fill="#000000" />
<rect x="25" y="22" width="1" height="1" fill="#000000" />
<rect x="4" y="43" width="1" height="1" fill="#000000" />
<rect x="27" y="43" width="1" height="1" fill="#000000" />
<rect x="3" y="44" width="1" height="1" fill="#000000" />
<rect x="28" y="44" width="1" height="1" fill="#000000" />
<rect x="3" y="45" width="1" height="1" fill="#000000" />
<rect x="28" y="45" width="1" height="1" fill="#000000" />
<rect x="4" y="46" width="1" height="1" fill="#000000" />
<rect x="27" y="46" width="1" height="1" fill="#000000" />
<rect x="27" y="77" width="1" height="1" fill="#000000" />
<rect x="27" y="78" width="1" height="1" fill="#000000" />
<rect x="25" y="79" width="1" height="1" fill="#000000" />
<rect x="26" y="79" width="1" height="1" fill="#000000" />
<rect x="27" y="79" width="1" height="1" fill="#000000" />
<rect x="28" y="79" width="1" height="1" fill="#000000" />
<rect x="26" y="80" width="1" height="1" fill="#000000" />
<rect x="26" y="81" width="1" height="1" fill="#000000" />
<rect x="26" y="82" width="1" height="1" fill="#000000" />
<rect x="24" y="83" width="1" height="1" fill="#000000" />
<rect x="25" y="83" width="1" height="1" fill="#000000" />
<rect x="26" y="83" width="1" height="1" fill="#000000" />
<rect x="27" y="83" width="1" height="1" fill="#000000" />
<rect x="25" y="84" width="1" height="1" fill="#000000" />
<rect x="25" y="85" width="1" height="1" fill="#000000" />
<rect x="25" y="86" width="1" height="1" fill="#000000" />
</svg>