<svg xmlns="http://www.w3.org/2000/svg" viewBox="0 0 32 32"><path fill="#2800BA" d="M12 0h1v1h-1zM13 0h1v1h-1zM14 0h1v1h-1zM15 0h1v1h-1zM16 0h1v1h-1zM17 0h1v1h-1zM12 1h1v1h-1zM13 1h1v1h-1zM14 1h1v1h-1zM15 1h1v1h-1zM16 1h1v1h-1zM17 1h1v1h-1zM9 2h1v1H9zM10 2h1v1h-1zM11 2h1v1h-1zM12 2h1v1h-1zM13 2h1v1h-1zM14 2h1v1h-1zM15 2h1v1h-1zM16 2h1v1h-1zM17 2h1v1h-1z"/><path fill="#FFA200" d="M12 3h1v1h-1zM13 3h1v1h-1zM14 3h1v1h-1zM15 3h1v1h-1zM16 3h1v1h-1zM17 3h1v1h-1z"/><path d="M12 4h1v1h-1z"/><path fill="#FFA200" d="M13 4h1v1h-1zM14 4h1v1h-1z"/><path d="M15 4h1v1h-1z"/><path fill="#FFA200" d="M16 4h1v1h-1zM17 4h1v1h-1zM18 4h1v1h-1zM12 5h1v1h-1zM13 5h1v1h-1zM14 5h1v1h-1zM15 5h1v1h-1zM16 5h1v1h-1zM17 5h1v1h-1zM12 6h1v1h-1zM13 6h1v1h-1zM14 6h1v1h-1zM15 6h1v1h-1zM16 6h1v1h-1zM17 6h1v1h-1zM13 7h1v1h-1zM14 7h1v1h-1zM15 7h1v1h-1zM16 7h1v1h-1z"/><path fill="#2000B2" d="M17 7h1v1h-1zM14 8h1v1h-1zM15 8h1v1h-1zM16 8h1v1h-1z"/><path fill="#FFF" d="M17 8h1v1h-1zM14 9h1v1h-1zM15 9h1v1h-1zM16 9h1v1h-1zM17 9h1v1h-1zM18 9h1v1h-1zM12 10h1v1h-1zM13 10h1v1h-1zM14 10h1v1h-1zM15 10h1v1h-1zM16 10h1v1h-1zM17 10h1v1h-1zM18 10h1v1h-1zM19 10h1v1h-1z"/><path fill="#794100" d="M6 11h1v1H6zM7 11h1v1H7zM8 11h1v1H8zM9 11h1v1H9z"/><path fill="#FFF" d="M12 11h1v1h-1zM13 11h1v1h-1zM14 11h1v1h-1zM15 11h1v1h-1zM16 11h1v1h-1zM17 11h1v1h-1zM18 11h1v1h-1zM19 11h1v1h-1z"/><path fill="#794100" d="M6 12h1v1H6zM7 12h1v1H7zM8 12h1v1H8zM9 12h1v1H9zM10 12h1v1h-1z"/><path fill="#FFF" d="M12 12h1v1h-1zM13 12h1v1h-1zM14 12h1v1h-1zM15 12h1v1h-1zM16 12h1v1h-1zM17 12h1v1h-1zM18 12h1v1h-1zM19 12h1v1h-1z"/><path fill="#794100" d="M6 13h1v1H6zM7 13h1v1H7zM8 13h1v1H8z"/><path fill="#FFA200" d="M9 13h1v1H9z"/><path fill="#794100" d="M10 13h1v1h-1z"/><path fill="#FFF" d="M12 13h1v1h-1zM13 13h1v1h-1zM14 13h1v1h-1zM15 13h1v1h-1zM16 13h1v1h-1zM17 13h1v1h-1zM18 13h1v1h-1zM19 13h1v1h-1z"/><path fill="#794100" d="M6 14h1v1H6zM7 14h1v1H7zM8 14h1v1H8zM9 14h1v1H9zM10 14h1v1h-1z"/><path fill="#FFF" d="M12 14h1v1h-1zM13 14h1v1h-1z"/><path fill="#2000B2" d="M14 14h1v1h-1zM15 14h1v1h-1zM16 14h1v1h-1z"/><path fill="#FFF" d="M17 14h1v1h-1zM18 14h1v1h-1zM19 14h1v1h-1z"/><path fill="#794100" d="M6 15h1v1H6zM7 15h1v1H7zM8 15h1v1H8z"/><path fill="#FFA200" d="M9 15h1v1H9z"/><path fill="#794100" d="M10 15h1v1h-1z"/><path fill="#FFF" d="M12 15h1v1h-1zM13 15h1v1h-1z"/><path fill="#2000B2" d="M14 15h1v1h-1zM15 15h1v1h-1zM16 15h1v1h-1z"/><path fill="#FFF" d="M17 15h1v1h-1zM18 15h1v1h-1zM19 15h1v1h-1z"/><path fill="#794100" d="M7 16h1v1H7z"/><path fill="#2000B2" d="M8 16h1v1H8zM9 16h1v1H9zM10 16h1v1h-1z"/><path fill="#2800BA" d="M12 16h1v1h-1z"/><path fill="#2000B2" d="M13 16h1v1h-1zM14 16h1v1h-1zM15 16h1v1h-1zM16 16h1v1h-1z"/><path fill="#FFF" d="M17 16h1v1h-1zM18 16h1v1h-1zM19 16h1v1h-1z"/><path fill="#2000B2" d="M8 17h1v1H8zM9 17h1v1H9zM10 17h1v1h-1zM11 17h1v1h-1zM12 17h1v1h-1zM13 17h1v1h-1zM14 17h1v1h-1zM15 17h1v1h-1zM16 17h1v1h-1z"/><path fill="#FFF" d="M17 17h1v1h-1z"/><path fill="#2000B2" d="M18 17h1v1h-1z"/><path fill="#FFF" d="M19 17h1v1h-1z"/><path fill="#2000B2" d="M9 18h1v1H9zM10 18h1v1h-1zM11 18h1v1h-1zM12 18h1v1h-1zM13 18h1v1h-1zM14 18h1v1h-1z"/><path fill="#FFF" d="M15 18h1v1h-1zM16 18h1v1h-1zM17 18h1v1h-1zM18 18h1v1h-1zM19 18h1v1h-1zM12 19h1v1h-1zM13 19h1v1h-1zM14 19h1v1h-1zM15 19h1v1h-1zM16 19h1v1h-1zM17 19h1v1h-1zM18 19h1v1h-1zM19 19h1v1h-1zM13 20h1v1h-1zM14 20h1v1h-1zM15 20h1v1h-1zM16 20h1v1h-1zM17 20h1v1h-1zM18 20h1v1h-1zM13 21h1v1h-1zM14 21h1v1h-1zM15 21h1v1h-1zM16 21h1v1h-1zM17 21h1v1h-1zM18 21h1v1h-1zM13 22h1v1h-1zM14 22h1v1h-1zM15 22h1v1h-1zM16 22h1v1h-1zM17 22h1v1h-1zM18 22h1v1h-1zM13 23h1v1h-1zM14 23h1v1h-1zM15 23h1v1h-1zM16 23h1v1h-1zM17 23h1v1h-1zM13 24h1v1h-1zM14 24h1v1h-1zM15 24h1v1h-1zM16 24h1v1h-1zM17 24h1v1h-1zM13 25h1v1h-1zM14 25h1v1h-1zM15 25h1v1h-1zM16 25h1v1h-1zM17 25h1v1h-1zM14 26h1v1h-1zM15 26h1v1h-1zM16 26h1v1h-1zM17 26h1v1h-1zM15 27h1v1h-1zM16 27h1v1h-1zM17 27h1v1h-1zM15 28h1v1h-1zM16 28h1v1h-1zM17 28h1v1h-1z"/><path d="M18 28h1v1h-1zM15 29h1v1h-1zM16 29h1v1h-1zM17 29h1v1h-1zM15 30h1v1h-1zM16 30h1v1h-1zM17 30h1v1h-1zM14 31h1v1h-1zM15 31h1v1h-1zM16 31h1v1h-1zM17 31h1v1h-1z"/></svg>